<svg width="132" height="14" fill="none" xmlns="http://www.w3.org/2000/svg"><path d="M10.679 9.871c0 .486-.091.905-.273 1.257-.176.351-.413.65-.712.896a3.926 3.926 0 01-1.037.607 7.451 7.451 0 01-1.213.36 9.385 9.385 0 01-1.274.176 15.247 15.247 0 01-2.32 0 11.163 11.163 0 01-2.303-.387 6.803 6.803 0 01-1.064-.413L.466 1.047a9.94 9.94 0 011.046-.36C1.88.575 2.256.484 2.637.414c.386-.076.77-.132 1.151-.167a10.124 10.124 0 012.364.018c.428.052.838.14 1.23.263.393.123.76.284 1.1.484.34.193.635.433.887.72.258.288.457.622.598 1.002.146.381.22.82.22 1.319 0 .328-.047.635-.141.923a2.561 2.561 0 01-.404.773c-.176.229-.39.425-.642.589a2.84 2.84 0 01-.853.351c.381.1.727.247 1.038.44.316.193.583.428.8.703a3 3 0 01.51.932c.122.345.184.715.184 1.107zm-4.465-5.01a.823.823 0 00-.106-.43.933.933 0 00-.263-.3.994.994 0 00-.334-.166 1.114 1.114 0 00-.317-.053c-.117 0-.231.018-.342.053-.112.035-.22.076-.326.123l-.052 1.951c.134 0 .301-.012.5-.035.2-.024.39-.073.572-.15.187-.082.346-.199.475-.351.128-.158.193-.372.193-.642zM4.966 7.727c-.17 0-.334.017-.492.052l-.036 2.004.255.053c.088.012.173.018.255.018.123 0 .258-.012.405-.036.146-.029.284-.082.413-.158a.988.988 0 00.316-.325c.088-.135.132-.314.132-.536 0-.223-.044-.404-.132-.545a.914.914 0 00-.308-.325 1.007 1.007 0 00-.404-.158 2.073 2.073 0 00-.404-.044zm15.82-1.829c0 .51-.035 1.02-.105 1.53-1.002.064-1.998.17-2.989.316l-2.97.422c.152.422.39.759.712 1.01.328.253.717.379 1.168.379.235 0 .49-.044.765-.132.281-.088.56-.196.835-.325.275-.135.54-.279.791-.431.252-.152.469-.29.65-.413l-.421 3.99a3.83 3.83 0 01-.747.448 4.96 4.96 0 01-.827.3 6.331 6.331 0 01-.87.166c-.293.035-.58.053-.861.053-.58 0-1.11-.08-1.59-.237a4.824 4.824 0 01-1.31-.66 5.051 5.051 0 01-1.02-1.01 5.878 5.878 0 01-.73-1.266 7.304 7.304 0 01-.439-1.45c-.1-.51-.15-1.025-.15-1.547 0-.545.05-1.09.15-1.635.1-.545.25-1.07.448-1.573.205-.504.46-.97.765-1.397.31-.434.67-.812 1.081-1.134.41-.323.873-.574 1.389-.756a5.208 5.208 0 011.722-.273c.522 0 .997.074 1.424.22.434.14.818.34 1.152.598.34.252.632.554.878.905.252.352.457.738.616 1.16.164.416.284.859.36 1.327.082.463.123.935.123 1.415zm-3.516-.457c0-.164-.017-.33-.052-.5a1.532 1.532 0 00-.176-.475.964.964 0 00-.308-.343.8.8 0 00-.483-.14c-.234 0-.442.064-.624.193a1.768 1.768 0 00-.457.474 2.772 2.772 0 00-.316.616 4.723 4.723 0 00-.185.615l2.601-.246V5.44zM30.375 8.5c0 .803-.14 1.497-.422 2.083a3.954 3.954 0 01-1.142 1.441 4.838 4.838 0 01-1.697.835 7.891 7.891 0 01-2.083.264c-.287 0-.603-.038-.949-.114-.34-.076-.686-.17-1.037-.282a20.56 20.56 0 01-1.02-.369c-.322-.134-.609-.26-.86-.378l.386-3.445a6.293 6.293 0 001.652.686 7.376 7.376 0 002.197.22 2.17 2.17 0 00.449-.08 1.02 1.02 0 00.369-.202c.1-.088.15-.214.15-.378a.4.4 0 00-.106-.281.72.72 0 00-.273-.193 1.428 1.428 0 00-.378-.115c-.14-.029-.278-.05-.413-.061a4.376 4.376 0 00-.378-.018h-.28c-.505 0-.965-.079-1.38-.237a3.153 3.153 0 01-1.064-.668 3.097 3.097 0 01-.686-1.055 3.73 3.73 0 01-.246-1.38c0-.691.138-1.31.413-1.854a4.345 4.345 0 011.116-1.398 5.059 5.059 0 011.609-.887 5.779 5.779 0 011.872-.308c.287 0 .583.012.887.035a8.514 8.514 0 011.793.308c.288.082.56.185.818.308l-.334 3.568a10.105 10.105 0 00-1.257-.334 6.02 6.02 0 00-1.951-.106c-.129.012-.26.033-.396.062-.134.03-.255.07-.36.123a.657.657 0 00-.255.193.418.418 0 00-.088.29.384.384 0 00.14.3c.095.07.212.122.352.157.147.03.305.044.475.044.176 0 .349-.003.519-.008.17-.012.328-.02.474-.027a2.63 2.63 0 01.36-.009c.47.03.891.13 1.266.3.375.17.692.395.95.676.263.281.462.618.597 1.01.14.388.211.815.211 1.284zM40.043.607l-.088 3.727-2.62.105-.316 8.157-3.708.193-.334-8.156-2.62.14.106-4.148 9.58-.018zm60.803 4.29c0 .568-.085 1.072-.255 1.511-.17.44-.404.826-.703 1.16a4.14 4.14 0 01-1.037.835 7.005 7.005 0 01-1.284.554c-.45.14-.92.246-1.406.316-.486.065-.964.1-1.433.106v3.744h-4.095v-1.951c.006-.633.009-1.26.009-1.881.005-.627.008-1.257.008-1.89l.018-1.96c.012-.714.015-1.43.009-2.144-.006-.715.009-1.436.044-2.162a15.786 15.786 0 014.57-.668c.451 0 .902.038 1.353.114.452.07.882.185 1.292.343.416.158.8.357 1.152.597.357.235.665.516.923.844.258.328.46.703.606 1.125a4.1 4.1 0 01.229 1.406zm-3.903.298c0-.38-.117-.676-.351-.887-.229-.217-.528-.326-.897-.326-.123 0-.252.012-.386.036a3.431 3.431 0 00-.37.07l-.105 2.566c.082.012.161.018.237.018h.238c.21 0 .413-.035.606-.106.2-.07.375-.17.527-.298.153-.135.273-.29.36-.466.094-.182.141-.384.141-.607zm12.112 3.147l-.369 3.902-7.401.58.281-12.55h4.571l-.651 8.068h3.569zm11.496 3.902l-4.36.563-.527-1.987h-2.004l-.439 1.987-4.483-.44L112.236.66l4.887-.246 3.428 11.83zm-5.203-4.113l-.668-3.059-.651 3.059h1.319zm16.295.422c0 .662-.009 1.318-.027 1.968a72.086 72.086 0 01-.061 1.952l-5.063-.088c.176-1.037.328-2.072.457-3.103.129-1.037.194-2.083.194-3.137a11.796 11.796 0 00-.123-1.6 3.78 3.78 0 00-.132-.624 1.516 1.516 0 00-.202-.457c-.077-.123-.17-.185-.282-.185a.767.767 0 00-.509.176c-.135.117-.249.27-.343.457a2.924 2.924 0 00-.211.615 6.85 6.85 0 00-.123.686c-.024.228-.041.445-.053.65-.006.2-.009.364-.009.492a297.432 297.432 0 00-.07 3.094c-.018 1.02-.041 2.051-.07 3.094l-4.483.193c.117-2.068.229-4.125.334-6.17.112-2.045.199-4.101.264-6.17l4.148-.21-.035 1.406c.164-.2.34-.387.528-.563.193-.175.398-.325.615-.448.217-.129.445-.228.685-.299.246-.076.504-.114.774-.114.498 0 .934.082 1.309.246.375.164.698.387.967.668.27.281.495.615.677 1.002.181.38.328.788.439 1.222.112.433.197.887.255 1.362.059.469.097.932.114 1.389.024.457.036.899.036 1.327v1.169z" fill="#333"/><path d="M53.367.607l-.088 3.727-2.619.105-.316 8.157-3.71.193-.333-8.156-2.62.14.106-4.148 9.58-.018zm11.189 5.66c0 .534-.062 1.05-.185 1.547a5.935 5.935 0 01-.536 1.39c-.229.433-.51.831-.844 1.194a5.488 5.488 0 01-2.46 1.53 5.54 5.54 0 01-1.548.21 5.57 5.57 0 01-1.511-.201 5.858 5.858 0 01-1.336-.563 5.7 5.7 0 01-1.134-.879 5.848 5.848 0 01-.861-1.142 6.26 6.26 0 01-.554-1.354 6.07 6.07 0 01-.009-2.997c.123-.492.299-.955.528-1.389.234-.433.515-.832.843-1.195a5.59 5.59 0 011.099-.94 5.37 5.37 0 011.327-.616c.475-.146.976-.22 1.503-.22.85 0 1.623.132 2.32.396a4.96 4.96 0 011.793 1.134 4.924 4.924 0 011.152 1.775c.275.692.413 1.465.413 2.32zm-3.903.23c0-.253-.038-.496-.114-.73a1.889 1.889 0 00-.316-.633 1.561 1.561 0 00-.528-.448 1.41 1.41 0 00-.712-.176c-.275 0-.521.05-.738.15a1.708 1.708 0 00-.914 1.019 2.141 2.141 0 00-.123.73c0 .245.035.491.105.737.07.247.176.47.317.668.14.2.313.36.518.484.211.123.454.184.73.184.275 0 .521-.052.738-.158.223-.111.41-.258.563-.44.152-.187.27-.4.351-.64.082-.241.123-.49.123-.748zM75.647.624c-.263 2.063-.489 4.116-.676 6.161-.188 2.04-.367 4.093-.536 6.161l-3.604.264.158-1.354a1.847 1.847 0 01-.413.352 2.42 2.42 0 01-.492.246 3.36 3.36 0 01-.545.132 3.385 3.385 0 01-.536.026 3.015 3.015 0 01-1.125-.228 3.92 3.92 0 01-.967-.598 4.892 4.892 0 01-.79-.87 6.406 6.406 0 01-.599-1.046 6.646 6.646 0 01-.369-1.125 5.257 5.257 0 01-.123-1.107c0-.528.01-1.073.027-1.635a33.418 33.418 0 01.316-3.393c.088-.556.196-1.09.325-1.6.715.036 1.433.068 2.154.097.72.03 1.438.038 2.153.027-.135.51-.27 1.022-.404 1.538-.13.51-.246 1.025-.352 1.547a20.06 20.06 0 00-.255 1.555 12.896 12.896 0 00-.097 1.582c0 .123.006.3.018.528.012.228.041.454.088.677.053.222.129.418.228.588a.496.496 0 00.44.246c.223 0 .422-.093.598-.28a2.68 2.68 0 00.465-.774c.135-.322.25-.695.343-1.116.1-.422.182-.862.246-1.319.07-.463.126-.928.167-1.397.041-.469.07-.908.088-1.319.024-.416.038-.788.044-1.116.012-.328.018-.583.018-.764a6.589 6.589 0 00-.035-.686 74.95 74.95 0 002.267.035h.879c.299-.006.598-.017.896-.035zm10.829 3.902c0 .457-.041.873-.123 1.248-.077.37-.2.71-.37 1.02-.17.31-.39.598-.659.861-.27.264-.594.516-.975.756l2.091 3.727-3.955.773-1.353-3.744-1.09.035-.158 3.656h-3.78c.03-1.336.056-2.666.08-3.99.029-1.324.061-2.654.096-3.99l.035-2.004c.012-.662.036-1.33.07-2.004.41-.152.815-.278 1.214-.378.398-.1.796-.176 1.195-.228.404-.059.812-.097 1.222-.115.416-.023.84-.035 1.274-.035.668 0 1.313.094 1.934.281.627.182 1.18.458 1.66.827.481.369.865.829 1.152 1.38.293.55.44 1.192.44 1.924zm-3.938.282c0-.247-.035-.472-.105-.677a1.375 1.375 0 00-.3-.528 1.261 1.261 0 00-.491-.351 1.645 1.645 0 00-.686-.132c-.117 0-.231.009-.343.026-.111.012-.22.033-.325.062l-.14 3.27h.21c.252 0 .507-.033.765-.097.264-.065.498-.164.703-.299.211-.135.381-.308.51-.519.135-.21.202-.462.202-.755z" fill="#EC1F46"/></svg>